<?xml version="1.0" encoding="utf-8"?>
<!-- Generator: Adobe Illustrator 24.0.0, SVG Export Plug-In . SVG Version: 6.00 Build 0)  -->
<svg version="1.1" id="Слой_1" xmlns="http://www.w3.org/2000/svg" xmlns:xlink="http://www.w3.org/1999/xlink" x="0px" y="0px"
	 viewBox="0 0 488.3 329.6" style="enable-background:new 0 0 488.3 329.6;" xml:space="preserve">
<style type="text/css">
	.st0{fill:#FBF2E4;}
	.st1{fill:#EFE6CB;}
	.st2{display:none;fill:#FFA4B8;}
	.st3{fill:url(#SVGID_1_);}
	.st4{fill:#FFFFFF;}
	.st5{fill:#8A3793;}
	.st6{fill:url(#SVGID_2_);}
	.st7{fill:#BF4570;}
	.st8{fill:url(#SVGID_3_);}
	.st9{fill:#424F66;}
	.st10{fill:url(#SVGID_4_);}
	.st11{fill:url(#SVGID_5_);}
	.st12{fill:#EBEBEB;}
	.st13{fill:#D3D3D3;}
	.st14{fill:#6D7A49;}
	.st15{fill:#3EAB2E;}
	.st16{fill:#007145;}
	.st17{fill:#5EBD3B;}
	.st18{fill:#148F59;}
	.st19{fill:#FF784E;}
	.st20{fill:#FF5E4B;}
	.st21{fill:#001F3F;}
	.st22{fill:#F6EBE3;}
	.st23{fill:#627695;}
	.st24{fill:#464B81;}
	.st25{fill:#FFC13E;}
	.st26{fill:#F2E1D6;}
	.st27{fill:#E7B28E;}
	.st28{fill:#FF2052;}
	.st29{fill:#FFA4B8;}
	.st30{fill:#F5DFD4;}
	.st31{fill:#CA5E17;}
	.st32{fill:#7A3434;}
	.st33{fill:#7646FA;}
	.st34{opacity:0;fill:#FFFFFF;}
	.st35{opacity:6.250000e-02;fill:#F5F5F5;}
	.st36{opacity:0.125;fill:#EBEBEB;}
	.st37{opacity:0.1875;fill:#E1E1E1;}
	.st38{opacity:0.25;fill:#D7D7D7;}
	.st39{opacity:0.3125;fill:#CDCDCD;}
	.st40{opacity:0.375;fill:#C3C3C3;}
	.st41{opacity:0.4375;fill:#B9B9B9;}
	.st42{opacity:0.5;fill:#B0B0B0;}
	.st43{opacity:0.5625;fill:#A6A6A6;}
	.st44{opacity:0.625;fill:#9C9C9C;}
	.st45{opacity:0.6875;fill:#929292;}
	.st46{opacity:0.75;fill:#888888;}
	.st47{opacity:0.8125;fill:#7E7E7E;}
	.st48{opacity:0.875;fill:#747474;}
	.st49{opacity:0.9375;fill:#6A6A6A;}
	.st50{fill:#606060;}
	.st51{filter:url(#Adobe_OpacityMaskFilter);}
	.st52{mask:url(#SVGID_6_);}
	.st53{opacity:0.95;fill:#4A81E8;}
	.st54{opacity:0.9;fill:#9B9B9B;}
	.st55{fill:url(#SVGID_7_);}
	.st56{fill:url(#SVGID_8_);}
	.st57{fill:url(#SVGID_9_);}
	.st58{opacity:0.7;fill:#ACACAC;}
	.st59{filter:url(#Adobe_OpacityMaskFilter_1_);}
	.st60{mask:url(#SVGID_10_);}
	.st61{filter:url(#Adobe_OpacityMaskFilter_2_);}
	.st62{fill:#DCDCDC;}
	.st63{opacity:0.6;fill:#DCDCDC;}
	.st64{opacity:0.8;fill:#DCDCDC;}
	.st65{fill:none;stroke:#001F3F;stroke-width:3;stroke-miterlimit:10;}
	.st66{fill:url(#SVGID_11_);}
	.st67{fill:url(#SVGID_12_);}
	.st68{fill:url(#SVGID_13_);}
	.st69{fill:url(#SVGID_14_);}
	.st70{fill:url(#SVGID_15_);}
	.st71{fill:url(#SVGID_16_);}
	.st72{fill:url(#SVGID_17_);}
	.st73{fill:url(#SVGID_18_);}
	.st74{fill:#586F8E;}
	.st75{fill:#6C6F91;}
	.st76{fill:#5D607E;}
	.st77{fill:#928DBC;}
	.st78{fill:#4A4C62;}
	.st79{fill:#181813;}
	.st80{fill:#766F78;}
	.st81{fill:#665F67;}
	.st82{fill:#3E3541;}
	.st83{fill:#807DA6;}
	.st84{fill:#68687A;}
	.st85{fill:#616777;}
	.st86{fill:#4C4C59;}
	.st87{fill:#A6A1D7;}
	.st88{opacity:0.19;fill:#A2A7FB;}
	.st89{fill:#433F79;}
	.st90{fill:#4070B0;}
	.st91{fill:#535B9C;}
	.st92{fill:#DDA065;}
	.st93{fill:#2C44A5;}
	.st94{fill:#D2A881;}
	.st95{fill:#BE9777;}
	.st96{fill:#A41D2F;}
	.st97{fill:#F4D779;}
	.st98{fill:#C8915C;}
	.st99{fill:#3E6E68;}
	.st100{fill:#65B1C4;}
	.st101{opacity:0.26;fill:#AEB6AB;}
	.st102{fill:#3A4635;}
	.st103{fill:#908FC5;}
	.st104{opacity:0.26;fill:#908FC5;}
	.st105{fill:#2B1B43;}
	.st106{fill:#EFC431;}
	.st107{fill:#E29E30;}
	.st108{fill:#7E7266;}
	.st109{opacity:0.4;fill:#EFC431;}
	.st110{fill:url(#SVGID_19_);}
	.st111{fill:#5B6471;}
	.st112{fill:#2D3D65;}
	.st113{fill:#495A7A;}
	.st114{fill:#6381AE;}
	.st115{fill:#40598A;}
	.st116{fill:#7F7C78;}
	.st117{fill:#B8C2AE;}
	.st118{fill:#6F7984;}
	.st119{fill:#621A16;}
	.st120{fill:#8D342D;}
	.st121{fill:#CDC9C9;}
	.st122{fill:#F6F1F1;}
	.st123{fill:#ABA58A;}
	.st124{fill:#E3CC8B;}
	.st125{fill:#7D7B6E;}
	.st126{fill:#D5D5D3;}
	.st127{fill:#7D7E79;}
	.st128{fill:#324A7A;}
	.st129{fill:#526F9C;}
	.st130{fill:#2F4855;}
	.st131{fill:#E2A290;}
	.st132{fill:#EACA81;}
	.st133{fill:#5E8D7C;}
	.st134{fill:#D88DA0;}
	.st135{fill:#DA0200;}
	.st136{fill:#7CBDA4;}
	.st137{fill:#D8735A;}
	.st138{fill:#ABD8C8;}
	.st139{fill:none;stroke:#FF2052;stroke-miterlimit:10;}
	.st140{fill:none;stroke:#385448;stroke-miterlimit:10;stroke-opacity:0.5;}
	.st141{fill:none;stroke:#5B0C21;stroke-width:2.5;stroke-miterlimit:10;}
	.st142{fill:none;stroke:#385448;stroke-miterlimit:10;}
	.st143{fill:url(#SVGID_20_);}
	.st144{fill:url(#SVGID_21_);}
	.st145{fill:url(#SVGID_22_);}
	.st146{fill:url(#SVGID_23_);}
	.st147{clip-path:url(#SVGID_25_);fill:url(#SVGID_26_);}
	.st148{clip-path:url(#SVGID_25_);}
	.st149{clip-path:url(#SVGID_28_);fill:url(#SVGID_29_);}
	.st150{clip-path:url(#SVGID_28_);fill:url(#SVGID_30_);}
	.st151{fill:#E69590;}
	.st152{fill:#8733C4;}
	.st153{fill:#E27C77;}
	.st154{fill:#E5ACAC;}
	.st155{fill:#2B326A;}
	.st156{fill:url(#SVGID_31_);}
	.st157{fill:#EDEAE8;}
	.st158{fill:#6E27B4;}
	.st159{fill:#B6C7F3;}
	.st160{fill:url(#SVGID_32_);}
	.st161{fill:#7394C5;}
	.st162{fill:#1C1C16;}
	.st163{fill:#F3D9B7;}
	.st164{fill:#595978;stroke:#000000;stroke-width:9;stroke-miterlimit:10;}
	.st165{fill:#7394C5;stroke:#000000;stroke-width:1.5;stroke-miterlimit:10;}
	.st166{opacity:0.8;}
	.st167{opacity:6.250000e-02;fill:#F7F7F7;}
	.st168{opacity:0.125;fill:#EFEFF0;}
	.st169{opacity:0.1875;fill:#E7E8E8;}
	.st170{opacity:0.25;fill:#E0E0E1;}
	.st171{opacity:0.3125;fill:#D8D8D9;}
	.st172{opacity:0.375;fill:#D0D0D1;}
	.st173{opacity:0.4375;fill:#C8C9CA;}
	.st174{opacity:0.5;fill:#C0C1C2;}
	.st175{opacity:0.5625;fill:#B8B9BB;}
	.st176{opacity:0.625;fill:#B1B1B3;}
	.st177{opacity:0.6875;fill:#A9AAAB;}
	.st178{opacity:0.75;fill:#A1A2A4;}
	.st179{opacity:0.8125;fill:#999A9C;}
	.st180{opacity:0.875;fill:#919295;}
	.st181{opacity:0.9375;fill:#898B8D;}
	.st182{fill:#696969;}
	.st183{fill:url(#SVGID_41_);}
	.st184{opacity:0;fill:url(#SVGID_42_);}
	.st185{opacity:6.250000e-02;fill:url(#SVGID_43_);}
	.st186{opacity:0.125;fill:url(#SVGID_44_);}
	.st187{opacity:0.1875;fill:url(#SVGID_45_);}
	.st188{opacity:0.25;fill:url(#SVGID_46_);}
	.st189{opacity:0.3125;fill:url(#SVGID_47_);}
	.st190{opacity:0.375;fill:url(#SVGID_48_);}
	.st191{opacity:0.4375;fill:url(#SVGID_49_);}
	.st192{opacity:0.5;fill:url(#SVGID_50_);}
	.st193{opacity:0.5625;fill:url(#SVGID_51_);}
	.st194{opacity:0.625;fill:url(#SVGID_52_);}
	.st195{opacity:0.6875;fill:url(#SVGID_53_);}
	.st196{opacity:0.75;fill:url(#SVGID_54_);}
	.st197{opacity:0.8125;fill:url(#SVGID_55_);}
	.st198{opacity:0.875;fill:url(#SVGID_56_);}
	.st199{opacity:0.9375;fill:url(#SVGID_57_);}
	.st200{fill:url(#SVGID_58_);}
	.st201{opacity:0.6;fill:#D1D1D1;}
	.st202{opacity:0.5;}
	.st203{fill:#D1D1D1;}
	.st204{opacity:0.7;fill:#D1D1D1;}
	.st205{opacity:0.4;fill:#D1D1D1;}
	.st206{opacity:0.8;fill:#ABABAB;}
	.st207{opacity:0.95;fill:#568F2C;}
	.st208{fill:#568F2C;}
	.st209{opacity:0.1875;fill:#E7E7E8;}
	.st210{opacity:0.25;fill:#DFE0E0;}
	.st211{opacity:0.3125;fill:#D7D8D8;}
	.st212{opacity:0.375;fill:#CFD0D1;}
	.st213{opacity:0.4375;fill:#C7C8C9;}
	.st214{opacity:0.5;fill:#BFC0C1;}
	.st215{opacity:0.5625;fill:#B7B8BA;}
	.st216{opacity:0.625;fill:#AFB0B2;}
	.st217{opacity:0.6875;fill:#A8A8AA;}
	.st218{opacity:0.75;fill:#A0A1A2;}
	.st219{opacity:0.8125;fill:#98999B;}
	.st220{opacity:0.875;fill:#909193;}
	.st221{opacity:0.9375;fill:#88898B;}
	.st222{fill:#666666;}
	.st223{fill:url(#SVGID_59_);}
	.st224{opacity:0;fill:url(#SVGID_60_);}
	.st225{opacity:6.250000e-02;fill:url(#SVGID_61_);}
	.st226{opacity:0.125;fill:url(#SVGID_62_);}
	.st227{opacity:0.1875;fill:url(#SVGID_63_);}
	.st228{opacity:0.25;fill:url(#SVGID_64_);}
	.st229{opacity:0.3125;fill:url(#SVGID_65_);}
	.st230{opacity:0.375;fill:url(#SVGID_66_);}
	.st231{opacity:0.4375;fill:url(#SVGID_67_);}
	.st232{opacity:0.5;fill:url(#SVGID_68_);}
	.st233{opacity:0.5625;fill:url(#SVGID_69_);}
	.st234{opacity:0.625;fill:url(#SVGID_70_);}
	.st235{opacity:0.6875;fill:url(#SVGID_71_);}
	.st236{opacity:0.75;fill:url(#SVGID_72_);}
	.st237{opacity:0.8125;fill:url(#SVGID_73_);}
	.st238{opacity:0.875;fill:url(#SVGID_74_);}
	.st239{opacity:0.9375;fill:url(#SVGID_75_);}
	.st240{fill:url(#SVGID_76_);}
	.st241{opacity:0.9;fill:#A40909;}
	.st242{opacity:0.125;fill:#EFEFEF;}
	.st243{opacity:0.1875;fill:#E8E8E8;}
	.st244{opacity:0.25;fill:#E0E0E0;}
	.st245{opacity:0.3125;fill:#D8D8D8;}
	.st246{opacity:0.375;fill:#D0D0D0;}
	.st247{opacity:0.4375;fill:#C8C8C8;}
	.st248{opacity:0.5;fill:#C1C1C1;}
	.st249{opacity:0.5625;fill:#B9B9B9;}
	.st250{opacity:0.625;fill:#B1B1B1;}
	.st251{opacity:0.6875;fill:#A9A9A9;}
	.st252{opacity:0.75;fill:#A1A1A1;}
	.st253{opacity:0.8125;fill:#999999;}
	.st254{opacity:0.875;fill:#929292;}
	.st255{opacity:0.9375;fill:#8A8A8A;}
	.st256{fill:#828282;}
	.st257{opacity:0.76;fill:#664173;}
	.st258{fill:url(#SVGID_77_);}
	.st259{opacity:0;fill:url(#SVGID_78_);}
	.st260{opacity:6.250000e-02;fill:url(#SVGID_79_);}
	.st261{opacity:0.125;fill:url(#SVGID_80_);}
	.st262{opacity:0.1875;fill:url(#SVGID_81_);}
	.st263{opacity:0.25;fill:url(#SVGID_82_);}
	.st264{opacity:0.3125;fill:url(#SVGID_83_);}
	.st265{opacity:0.375;fill:url(#SVGID_84_);}
	.st266{opacity:0.4375;fill:url(#SVGID_85_);}
	.st267{opacity:0.5;fill:url(#SVGID_86_);}
	.st268{opacity:0.5625;fill:url(#SVGID_87_);}
	.st269{opacity:0.625;fill:url(#SVGID_88_);}
	.st270{opacity:0.6875;fill:url(#SVGID_89_);}
	.st271{opacity:0.75;fill:url(#SVGID_90_);}
	.st272{opacity:0.8125;fill:url(#SVGID_91_);}
	.st273{opacity:0.875;fill:url(#SVGID_92_);}
	.st274{opacity:0.9375;fill:url(#SVGID_93_);}
	.st275{fill:url(#SVGID_94_);}
	.st276{fill:#BA4510;}
	.st277{fill:url(#SVGID_95_);}
	.st278{opacity:0;fill:url(#SVGID_96_);}
	.st279{opacity:6.250000e-02;fill:url(#SVGID_97_);}
	.st280{opacity:0.125;fill:url(#SVGID_98_);}
	.st281{opacity:0.1875;fill:url(#SVGID_99_);}
	.st282{opacity:0.25;fill:url(#SVGID_100_);}
	.st283{opacity:0.3125;fill:url(#SVGID_101_);}
	.st284{opacity:0.375;fill:url(#SVGID_102_);}
	.st285{opacity:0.4375;fill:url(#SVGID_103_);}
	.st286{opacity:0.5;fill:url(#SVGID_104_);}
	.st287{opacity:0.5625;fill:url(#SVGID_105_);}
	.st288{opacity:0.625;fill:url(#SVGID_106_);}
	.st289{opacity:0.6875;fill:url(#SVGID_107_);}
	.st290{opacity:0.75;fill:url(#SVGID_108_);}
	.st291{opacity:0.8125;fill:url(#SVGID_109_);}
	.st292{opacity:0.875;fill:url(#SVGID_110_);}
	.st293{opacity:0.9375;fill:url(#SVGID_111_);}
	.st294{fill:url(#SVGID_112_);}
	.st295{fill:url(#SVGID_113_);}
	.st296{fill:#E7BF9C;}
	.st297{opacity:0.2;fill:#E7BF9C;}
	.st298{fill:#9074BF;}
	.st299{fill:#A18ACA;}
	.st300{fill:#1B1B1B;}
	.st301{fill:#DB9861;}
	.st302{fill:#DCE5F5;}
	.st303{fill:#A3CA64;}
	.st304{fill:#7CB02D;}
	.st305{opacity:0.3;fill:#DCE5F5;}
	.st306{fill:#D3DFF3;}
	.st307{fill:#DFA577;}
	.st308{fill:#8669BA;}
	.st309{fill:#375FC7;}
	.st310{fill:#93AFE3;}
	.st311{fill:#789ADB;}
	.st312{fill:#5C83D3;}
	.st313{fill:none;stroke:#1B1B1B;stroke-width:4;stroke-linecap:round;stroke-miterlimit:10;stroke-dasharray:70,50;}
	.st314{fill:#FCF3E4;}
	.st315{fill:url(#SVGID_114_);}
	.st316{fill:url(#SVGID_115_);}
	.st317{fill:url(#SVGID_116_);}
	.st318{fill:#B7225D;}
	.st319{fill:#F2EED6;}
	.st320{fill:#FDF8EE;}
	.st321{fill:#3B3D47;}
	.st322{opacity:0.7;fill:#7646FA;}
	.st323{fill:#CC7272;}
	.st324{fill:#4E4758;}
	.st325{fill:#AF7272;}
	.st326{fill:#58567F;}
	.st327{fill:#E5AF32;}
	.st328{fill:#C64C30;}
	.st329{fill:none;}
	.st330{fill:#FEFAF0;}
	.st331{fill:#E3C8C2;}
	.st332{fill:#DC8832;}
	.st333{fill:#B9D9CE;}
	.st334{fill:url(#SVGID_117_);}
	.st335{fill:url(#SVGID_118_);}
	.st336{fill:url(#SVGID_119_);}
	.st337{fill:url(#SVGID_120_);}
	.st338{fill:url(#SVGID_121_);}
	.st339{fill:url(#SVGID_122_);}
	.st340{fill:url(#SVGID_123_);}
	.st341{fill:url(#SVGID_124_);}
</style>
<g>
	<path class="st4" d="M98.6,94.1c-0.2,0.3-0.4,0.6-0.6,1c-0.9,1.9-1.8,3.8-2.7,5.7c-2.3,4.7-4.5,9.5-6.5,14.3l2.2,1.1
		c2.5-6.9,5.1-13.7,7.6-20.5c0.2-0.4,0.3-0.9,0.4-1.3C98.8,94.2,98.7,94.1,98.6,94.1z M95.6,230.4c-2.3-5.5-4.5-11.1-6.9-16.5
		l-1.7,0.8c2.7,5.7,5.5,11.4,8.2,17.1c0.1,0.3,0.4,0.5,0.7,0.7c0.1-0.1,0.2-0.2,0.4-0.2C96,231.6,95.8,231,95.6,230.4z M59.7,231.2
		c-0.4-0.9-0.7-1.8-1.1-2.7l-1.4,0.7c0.4,0.7,0.8,1.5,1.2,2.2c0.3,0.5,0.7,0.8,1.1,1.3c0.1-0.1,0.3-0.2,0.4-0.2
		C59.9,231.9,59.8,231.5,59.7,231.2z M57,94c-0.3,0.4-0.6,0.7-0.8,1.1c-0.6,1-1.2,2-1.8,3.1l1.1,0.6c0.5-1.2,1.1-2.4,1.6-3.6
		c0.1-0.3,0.1-0.6,0.2-0.9C57.2,94.1,57.1,94.1,57,94z"/>
	<path class="st5" d="M45,110.1c-0.2,0.3-0.7,0.4-1.1,0.4c-2.2,0-4.5,0-7.2,0c0.5-0.7,0.7-1.5,1.2-1.9c1.6-1.3,3.6-1.7,5.7-1.6
		C45.2,107.1,46,108.8,45,110.1z"/>
	<path class="st5" d="M45.5,116.4c-0.8,3.2-3.1,4.4-6.3,3.7c-2.2-0.5-4.6-0.7-7-1.1c0.5-2.1,2.1-3.5,4-4.3c2.6-1.1,5.3-1.2,8-0.6
		C45.6,114.4,45.9,115,45.5,116.4z"/>
	<path class="st5" d="M40.6,128.1c-1.7,3.1-6.7,4.7-10,3.4c-1.8-0.7-3.8-0.9-5.7-1.3c-0.6-0.1-1.2-0.1-1.9-0.2
		c0.8-3.2,3.1-6.8,7.1-7.1c2.9-0.2,5.9-0.5,8.7,0.5C41.4,124.4,41.9,125.8,40.6,128.1z"/>
	<path class="st5" d="M29.8,136.2c-0.4,2.1-1.2,3.9-2.8,5.3c-0.4,0.4-1.2,0.6-1.7,0.6c-2-0.2-4.1-0.3-6-0.8
		c-1.7-0.4-2.9-0.1-3.7,1.4c-0.1,0.2-0.3,0.3-0.5,0.6c-1.6-4.1,1.8-9.7,6-9.9c2.5-0.1,5,0.5,7.5,0.8C29.6,134.5,30,135.2,29.8,136.2
		z"/>
	<path class="st5" d="M87,214.7l-28.4,13.7c-1.1-2.7-2.2-5.4-3.3-8.1c-0.7-1.9-2.1-3.1-3.9-3.7c-0.7-0.3-1.5-0.6-1.9-1.2
		c-1.6-1.8-3.1-3.8-4.7-5.5c-1.6-1.7-1.9-3.7-1.5-5.9c1.3-6.2,4.2-11.5,8.4-16c0.3-0.3,0.6-0.6,1.2-1.1c-0.1,0.9-0.2,1.4-0.2,1.9
		c-0.5,4.4,0.2,8.6,2.3,12.5c1.1,2.1,2.7,3.8,5.1,4.6c0.6,0.2,1.2,0.1,1.8,0.2c0.1-0.1,0.1-0.3,0.2-0.4c-0.2-0.2-0.4-0.5-0.6-0.7
		c-2.2-1.1-3.4-3-4.1-5.3c-0.5-1.7-0.9-3.5-1.1-5.2c-0.5-4.4,0-8.4,3.5-11.8c4.7-4.6,5.9-10.5,4.3-16.7c-0.6-2.5-1.9-4.9-3.2-7.2
		c-2.4-4.2-2.4-8.4-0.3-12.7c0.7-1.5,1.5-1.6,2.8-0.6c1,0.8,2,1.6,2.8,2.6c4.1,5.1,8.2,10.1,12.1,15.4c2.9,4,4.4,8.8,5.5,13.7
		c0.4,1.7,0.4,3.5,0.2,5.2c-0.3,3.1-1,6.2-1.3,9.3c-0.7,6.2-0.5,12.4,2.2,18.1C85.4,211.4,86.2,213.1,87,214.7z"/>
	
		<linearGradient id="SVGID_1_" gradientUnits="userSpaceOnUse" x1="49.8528" y1="266.4691" x2="304.7799" y2="266.4691" gradientTransform="matrix(1 3.021523e-03 -3.021523e-03 1 0.4628 -0.8326)">
		<stop  offset="0" style="stop-color:#8F3693"/>
		<stop  offset="1" style="stop-color:#493E99"/>
	</linearGradient>
	<path class="st3" d="M304.4,270.9c-28.6,30.8-69.5,50-114.8,49.9c-61.6-0.2-114.8-36.1-140-88l7.6-3.7l1.4-0.7L87,214.7l1.7-0.8
		l5.3-2.6c17.2,35.5,53.6,60,95.7,60.2c31.7,0.1,60.3-13.7,79.9-35.6L304.4,270.9z"/>
	<path class="st7" d="M84.6,144.2c2,6.3,0.9,12.2-2.1,17.8c-0.1,0.2-0.3,0.3-0.4,0.4c-3.3-4.4-6.5-8.8-9.9-13.1
		c-2-2.5-4.4-4.8-6.8-7.1c-1.3-1.3-3.1-1.7-5-1.2c-1.8,0.5-3,1.9-3.8,3.6c-2.4,5.5-2.4,11,0.8,16.3c0.9,1.5,1.8,2.9,2.3,4.5
		c1.9,5.7,1.1,10.8-3.1,15.3c-0.3,0.3-0.8,0.7-1.2,0.8c-2.1,0.6-3.8,1.7-5.3,3.2c-4.8,4.6-8,10.1-9.7,16.5c-0.4,1.4-0.6,2.9-0.9,4.3
		c-3.6-0.6-7.4-4.5-7.8-8.1c-0.1-0.6-0.1-1.2,0-1.8c0.5-1.9,1-3.9,1.7-5.7c2.1-5.4,5.1-10.4,8.2-15.3c0.2-0.3,0.1-0.9,0.2-1.3
		c-0.4,0.2-1,0.2-1.3,0.5c-4.1,5.1-7.8,10.3-10.5,16.2c-0.3,0.6-0.5,1.2-0.8,1.8c-4-1.3-7.1-6.1-6.3-10c0.5-2.4,1.1-4.9,2.3-7.1
		c1.9-3.7,4.3-7.1,6.5-10.7c0.2-0.4,0.1-0.9,0.2-1.3c-0.4,0.2-0.9,0.2-1.2,0.4c-3.9,4.4-7.6,9-10,14.4c-0.1,0.3-0.3,0.5-0.6,0.9
		c-0.4-0.6-0.7-1.1-0.9-1.6c-3-6.6-3-15.4,3.1-21.5c0.4-0.4,1.1-0.9,0.5-1.6c-0.6-0.8-1.2-0.2-1.7,0.3c-2.4,1.9-4.3,4.3-5.6,7
		c-0.2,0.4-0.4,0.8-0.7,1.3c-1-1.7-1.9-3.2-1.7-5.2c0.5-4.5,1.9-8.7,5-12.2c0.3-0.3,0.9-0.4,1.3-0.4c1.5,0.1,3,0.3,4.6,0.6
		c3.3,0.5,5.7-0.9,7.2-3.6c0.9-1.5,1.5-3.2,1.9-4.9c0.3-1.2,0.7-1.6,1.9-1.8c6.8-1,11.1-6.5,9.2-12.1c0.1-0.1,0.3-0.2,0.4-0.3
		c0.2-0.1,0.4-0.2,0.5-0.3c2.5-1.9,4.4-4.4,3.7-7.5c-0.5-2.4-0.4-4.5-0.1-6.8c0.1-0.5,0.3-1.2,0.8-1.5c2-1.4,3.5-3.2,4.5-5.3
		c0.5-0.9,0.9-1.9,1.4-2.8L88.7,115c-2.4,5.6-4.5,11.2-6.3,17.1c-0.3,0.9-0.4,1.9-0.2,2.7C82.9,138,83.6,141.1,84.6,144.2z"/>
	
		<linearGradient id="SVGID_2_" gradientUnits="userSpaceOnUse" x1="49.8528" y1="63.6941" x2="303.6894" y2="63.6941" gradientTransform="matrix(1 3.021523e-03 -3.021523e-03 1 0.4628 -0.8326)">
		<stop  offset="0" style="stop-color:#BD4076"/>
		<stop  offset="1" style="stop-color:#DA7737"/>
	</linearGradient>
	<path class="st6" d="M304,58.3L269,93c-19.4-21.3-47.4-34.8-78.6-34.9c-42.1-0.1-78.6,24.2-96.1,59.6l-3.4-1.7l-2.2-1.1L55.5,98.7
		l-1.1-0.6L50,96C75.5,44.2,128.9,8.6,190.5,8.8C235.3,9,275.6,27.9,304,58.3z"/>
	<polygon class="st33" points="475.2,129.1 475.2,146 457,145.9 456.9,164.1 440,164.1 440.1,145.9 421.9,145.8 421.9,128.9 
		440.1,129 440.2,110.8 457.1,110.8 457,129 	"/>
	<path class="st33" d="M165.2,130.2c-6.6,4.9-12.9,10.5-18.2,16.7c-2.9,3.4-5.2,6.8-6.9,10c-7.4-2.4-10.8-7.7-11.1-11.8
		c-0.5-8,9.3-15.7,20.7-17c1.4-0.2,2.6-0.2,3.9-0.2C158.4,127.9,162.3,128.9,165.2,130.2z M189.2,128.9c1.5,1.4-1.9,6.6-5,10.3
		c-2.6,3.2-11.1,12.8-23.3,16.9c1.8-5.4,6.9-12.2,9.9-15.6C175.4,135.2,186.6,126.7,189.2,128.9z M198.8,118.4
		c1.1,1,1.6,2.5,1.6,4.3c0,5.9-5.2,15.3-12.2,23.4c-9.1,10.5-22.2,20.7-26.8,16.8c-1.3-1.1-1.5-2.7-1.1-4.8
		c7.3-2.3,13.9-6.5,19.7-11.6c9.2-8.1,13.8-17.3,10.7-19.4c-2.7-1.8-11.9,1.6-21.3,12.3c-5.7,6.4-9.2,12.6-10.3,17.3
		c-1.8,0.5-3.5,0.9-5.4,1.1c-0.9,0.1-1.7,0.2-2.4,0.2c1.7-2.7,3.4-5.7,5.6-8.8c4.2-6.5,8.7-12.1,13.2-16.5c0.8,0.4,1.3,0.8,1.6,1
		c0.9,0.7,1.7,0.9,2,0.5c0.2-0.3,0.1-1-0.8-2c-0.3-0.3-0.7-0.6-1.2-1.1c9.8-9.3,19.1-13.7,24.2-13.7
		C197,117.5,198.1,117.8,198.8,118.4z M200.5,116.5c-0.9-0.8-2.2-1.2-3.9-1.2c-6.4,0-17.8,5.3-29.3,13.3c-3.2-1.5-7.6-2.8-13.1-2.8
		c-1.6,0-3.1,0.1-4.8,0.3c-13,1.6-21.7,9.3-22.2,16.8c-0.4,6.8,3.4,13.4,11.8,16c-2.7,5.8-3.7,11.1-3.8,15.8
		c0,8.5,3.4,14.7,6.7,16.4c1.7,0.9,3.5,1.3,5.4,1.3c5.3,0,11-3,15.3-5.7c5.7-3.7,11.9-9.4,13-10.8c0.5-0.5,0.7-1,0.6-1.3
		c-0.2-0.4-0.8-0.4-1.5,0.3c-1.2,1-5,4.1-9.6,7.7c-3.8,2.8-11.2,7.9-17.2,7.9c-1.5,0-2.7-0.2-4-0.9c-2.1-1.2-3.3-3.1-3.3-6.3
		c0-4.9,3-12.4,9.4-23.4c3-0.1,5.9-0.7,8.6-1.3c-0.3,2.6,0.3,4.7,1.8,5.9c0.9,0.6,2,1,3.3,1c5.8,0,15.8-5.6,24.8-15.4
		c8.2-9,14.3-20,14.4-27.4C202.9,120.2,202.2,118,200.5,116.5z"/>
	<path class="st33" d="M200.7,163.3c2.7,1.6-0.3,8.5-4.2,14.7c-1.3-0.4-2.3-1-2.8-1.9c-0.6-1.2-0.4-1.8-0.1-2
		c0.4-0.4,0.5,0.1,1.2,0.2c0.8,0,1.8-0.8,1.9-2.2c0.1-0.9-0.5-1.9-1.3-2.1c-1.6-0.3-3,1.9-2.9,4.1c0,1.9,0.8,4,3.3,5
		c-0.1,0.2-0.2,0.3-0.3,0.5c-4.4,6.6-11.1,12.5-13.8,11.1c-2.6-1.5,1.5-9.6,6-16C192.8,167.6,197.8,161.7,200.7,163.3z M215.1,167.3
		c0.2-0.3-0.8-0.8-1.5,0.1c-1.6,2.2-3.5,4.9-5.9,7.1c-2.4,2.1-5.1,3.8-8.1,4c2.6-4.1,3.7-8,3.7-10.9c0-2.5-0.9-4.4-2.5-5.3
		c-4.1-2.3-13.3,3.3-19.2,11.5c-3.1,4.4-4.6,8.7-4.6,11.9c0,2.8,1.1,5,3.1,5.8c4.2,1.7,11.4-1.8,17.7-10.4c0.4-0.4,0.6-0.8,0.9-1.3
		c0.2,0,0.4,0,0.6,0c5-0.1,9.4-4.6,11-6.1C212.3,171.4,214.8,168.1,215.1,167.3z"/>
	<path class="st33" d="M250.6,128.2c2.1,1.5-6.6,13.4-15.1,22.8c-5.2,5.8-10.1,9.6-13.4,11.6c1.1-1.8,2.3-3.5,3.5-5.4
		C237,140.6,248.3,126.6,250.6,128.2z M253.8,125.9c-4.1-2.6-17.3,10-33.9,31.3c-11,14.1-16.7,23.7-16.7,29.3c0,2.2,0.9,3.7,2.5,4.7
		c5.1,3,12.7-5.6,16-9c3.2-3.3,10.7-12.4,11.6-13.6c0.5-0.6,0.3-1,0-1.2c-0.3-0.2-1-0.1-1.3,0.3c-0.6,0.8-7.4,9.3-11.7,13.8
		c-4.4,4.7-10.4,9.9-12.4,8.5c-1.6-1.1,3.6-11,11.8-23.7c5.1-2.5,10.2-6.7,19.5-16.5C248.7,139.5,258.3,128.6,253.8,125.9z"/>
	<path class="st33" d="M268.9,128.3c2.1,1.5-6.6,13.4-15.1,22.8c-5.2,5.8-10.1,9.6-13.4,11.6c1.1-1.8,2.3-3.5,3.5-5.4
		C255.4,140.6,266.7,126.7,268.9,128.3z M272.2,125.9c-4.1-2.6-17.3,10-33.9,31.3c-11,14.1-16.7,23.7-16.7,29.3
		c0,2.2,0.9,3.7,2.5,4.7c5.1,3,12.7-5.6,16-9c3.2-3.3,10.7-12.4,11.6-13.6c0.5-0.6,0.3-1,0-1.2c-0.3-0.2-1-0.1-1.3,0.3
		c-0.6,0.8-7.4,9.3-11.7,13.8c-4.4,4.7-10.4,9.9-12.4,8.5c-1.6-1.1,3.6-11,11.8-23.7c5.1-2.5,10.2-6.7,19.5-16.5
		C267,139.6,276.6,128.7,272.2,125.9z"/>
	<path class="st33" d="M262.9,163.6c1.8,1.3-1.1,5.1-3.5,7.5c-2.8,2.8-7.5,6.9-11.8,6.9c0.6-1.1,1.3-2.1,2.1-3.2
		C254.3,167.8,261.1,162.4,262.9,163.6z M273.4,168.2c0.3-0.4-0.1-0.7-0.6-0.9c-0.3-0.1-0.7,0-0.9,0.2c-0.5,0.5-3.3,4.9-10.3,11.9
		c-7.5,7.6-15.8,12.2-17.8,10.7c-1.7-1.2-0.2-5.5,2.8-10.6c4.4-0.2,10.3-2.7,13.8-5.4c3-2.3,5.3-5.8,5.3-8.4c0-1.4-0.6-2.5-1.9-3.1
		c-4.6-2.2-14.3,4.1-20.7,12.3c-3,4-4.5,7.6-4.5,10.5c0,3,1.5,5.3,4.2,6.3c5.3,1.8,14.9-6,19.6-10.7
		C267.1,176.1,272.9,168.7,273.4,168.2z"/>
	<path class="st33" d="M266.9,198.7c-2.7,3.7-5.3,7-7.8,9.8c-6,7.1-11.7,12.4-14.5,9.9c-2.5-2.2-0.3-7.2,5.4-11.4
		C253.6,204.5,260.4,201.6,266.9,198.7z M285.1,163.6c3.3,2.4-2.2,10-8,16.9c-5.9,6.9-11,10.9-12.5,9.9c-1.5-0.9,0.6-6.3,6.5-14.4
		C277.1,167.8,282.7,161.8,285.1,163.6z M302.5,168.5c0.5-0.8,0.3-1-0.1-1.1c-0.5,0-1.3,0.3-1.5,0.6c-0.4,0.4-4.4,5.9-7,8.8
		c-2.6,2.9-7.4,7.9-11.3,11.1c-2.6,2.2-5.1,4-8.9,6c1.8-3.5,3.7-7.1,6-10.4c6.1-9.5,15.5-19.3,15.9-19.7c0.5-0.5,0.3-1.3-1-0.9
		c-1.2,0.5-3.8,0.3-4.5,0.1c-0.7-0.3-0.9,0.3-1.5,0.9c-0.3,0.3-0.6,0.8-1,1.5c-0.1-1.4-0.9-2.4-2.6-2.9c-5.7-1.5-15.4,5.5-20.2,11.9
		c-3.6,4.9-4.9,8.9-4.9,11.9c0,2.9,1.3,4.9,2.9,5.5c3.2,1.3,7.1-2.2,9.1-4c0.9-0.8,2.7-2.6,4.8-4.8c-2.4,4.6-5.3,9.3-8.3,13.6
		c-0.3,0.1-0.7,0.3-1.1,0.5c-7.9,3.5-16.2,6.7-21,11.4c-2.8,2.7-4.4,5.8-4.4,8.4c0,1.8,0.7,3.4,2.1,4.8c1.3,1.2,2.8,1.6,4.5,1.6
		c2.6,0,5.3-1.1,6.8-1.9c2.4-1.6,6.8-5.6,10.4-11.5c2.1-3.3,4.2-8.2,7-13.6c1.7-0.8,3.2-1.7,4.6-2.4c7.7-4.6,13.5-11.6,17.2-15.4
		C298,174.5,301.4,170.1,302.5,168.5z"/>
	<path class="st33" d="M313.7,163.8c1.8,1.3-1.1,5.1-3.5,7.5c-2.8,2.8-7.5,6.9-11.8,6.9c0.6-1.1,1.3-2.1,2.1-3.2
		C305.2,168,311.9,162.5,313.7,163.8z M324.2,168.3c0.3-0.4-0.1-0.7-0.6-0.9c-0.3-0.1-0.7,0-0.9,0.2c-0.5,0.5-3.3,4.9-10.3,11.9
		c-7.5,7.6-15.8,12.2-17.8,10.7c-1.7-1.2-0.2-5.5,2.8-10.6c4.4-0.2,10.3-2.7,13.8-5.4c3-2.3,5.3-5.8,5.3-8.4c0-1.4-0.6-2.5-1.9-3.1
		c-4.6-2.2-14.3,4.1-20.7,12.3c-3,4-4.5,7.6-4.5,10.5c0,3,1.5,5.3,4.2,6.3c5.3,1.8,14.9-6,19.6-10.7
		C317.9,176.2,323.7,168.9,324.2,168.3z"/>
	<path class="st33" d="M353.2,168.6c0.3-0.4,0-0.8-0.4-1c-0.2-0.1-0.5,0-0.7,0.2c-0.3,0.5-6.6,8.2-11,12.9
		c-7.5,7.9-12.2,10.3-13.2,9.3c-1-1,0.5-3.8,2-6.1c1.5-2.3,5.9-7.6,9.4-11.3c2.1-2.2,3.2-4.7,3.2-6.6c0-1.4-0.5-2.5-1.7-3.2
		c-4.6-2.5-13.7,6.4-17.3,9.4c7.1-9.7,15.7-19.9,16.6-20.7c1.1-1,0.1-1.1-0.8-0.9c-1,0.2-4.6,0.2-5.5,0c-1-0.2-1.2,0.1-1.5,0.8
		c-3.4,6.2-13.8,23-21,34.2c-9.3,14.3-24,35.5-25.1,36.6c-1.3,1.2-0.5,1.7,0.3,1.4c0.8-0.3,5.2-0.8,5.8-0.6c0.5,0.1,1.8,0.3,2.1-0.6
		c3.2-8.5,17.4-33.4,23.9-41.9c5.8-7.7,17-17.5,19.4-16.2c1.9,1-9.4,11.9-11.9,16.1c-1.2,2-2,4.2-2,6.2c0,2.2,0.9,4,2.9,5
		c4.4,2,11.4-5.7,15.4-9.8C345.8,177.9,352.8,169.2,353.2,168.6z"/>
	<path class="st33" d="M389,128.6c2.1,1.5-6.6,13.4-15.1,22.8c-5.2,5.8-10.1,9.6-13.4,11.6c1.1-1.8,2.3-3.5,3.5-5.4
		C375.4,141,386.7,127.1,389,128.6z M392.2,126.3c-4.1-2.6-17.3,10-33.9,31.3c-11,14.1-16.7,23.7-16.7,29.3c0,2.2,0.9,3.7,2.5,4.7
		c5.1,3,12.7-5.6,16-9c3.2-3.3,10.7-12.4,11.6-13.6c0.5-0.6,0.3-1,0-1.2c-0.3-0.2-1-0.1-1.3,0.3c-0.6,0.8-7.4,9.3-11.7,13.8
		c-4.4,4.7-10.4,9.9-12.4,8.5c-1.6-1.1,3.6-11,11.8-23.7c5.1-2.5,10.2-6.7,19.5-16.5C387.1,140,396.7,129,392.2,126.3z"/>
	<path class="st33" d="M404,169c0.5-0.7,0.3-1.2-0.1-1.3c-0.3-0.2-0.8-0.1-1.1,0.2c-0.4,0.6-7.8,9.8-12.2,14.3
		c-4.3,4.5-9.5,9.7-11.5,8.6c-2-1.3,1.8-7.2,5.8-13.2c4.1-5.9,8.5-13.1,8.9-13.6c0.4-0.5,0-1.2-0.9-0.9c-1,0.3-3.4,0.4-3.9,0.1
		c-0.6-0.3-1,0-1.5,0.7c-3,4.2-6,8.5-10.6,15.8c-3.9,6.2-10.5,12.2-12.5,11c-2-1.3,1.8-7.2,5.9-13.2c4-6,8.5-13.1,8.9-13.6
		c0.4-0.5,0-1.2-0.9-0.9c-1,0.3-3.5,0.4-4,0.1s-0.9,0-1.4,0.7c-0.6,0.7-5.9,7.4-8.8,12.4c-2.4,4.1-3.8,7.8-3.8,10.7
		c0,2.2,0.8,3.7,2.5,4.7c3.4,1.8,7.9-2.1,12.2-6.6c-0.5,3,0.1,5.5,2.4,6.7c3.9,2.1,9.4-3.5,14.2-8.8
		C396.7,177.8,403.4,169.8,404,169z"/>
	<path class="st33" d="M399.3,186.2c0.5,0.2-0.8,2-1.8,2.9c-1.6,1.5-3.2,1.8-4.4,1.2c-1.3-0.8-1.8-3-1-5c0.9-1.9,1.8-2.6,2-2.7
		c0.2-0.2,0.4-0.5,0.6-0.1c0.2,0.4,1,1.6,1.6,2.1C396.9,185.1,398.8,186.1,399.3,186.2z M425.7,169c0.7-0.9-0.6-1.7-1.2-1
		c-0.6,0.8-3.7,5.4-7.9,9.2c-2.5,2.3-5.8,4.1-8.1,5.2c0.6-2,0.7-3.8,0.7-5.3c0.1-3.8-2.4-7.3-2.1-9.9c0.2-1.5,1.6-2.6,2.6-3.8
		c1.1-1.3,3-3.1,1-4.4c-2.1-1.3-4.5,1.6-6,3.8c-1.1,1.8-2.1,3-2.2,5.1c-0.2,2.1,2.3,3.1,1.5,9.3c-0.5,3.9-2.3,6.4-2.7,6.9
		c-0.3,0.4-0.5,0.6-0.9,0.6c-0.4,0-2.1-0.4-2.8-1.1c-0.9-0.7-1.4-1.5-1.7-2.6c-0.3-1.2-1.8-1.7-2.7-0.3c-2,2.8-2.8,5.1-2.9,6.8
		c0,1.5,0.6,2.6,1.5,3.4s2.3,1.3,4.1,1.3c2.5,0,5.7-1,8.1-3c1.8-1.5,2.9-3.2,3.7-4.9c3.3-1.4,7-3.5,10.1-6.4
		C419.9,175.9,424.3,171,425.7,169z"/>
</g>
</svg>
